<svg width="120" height="120" viewBox="0 0 120 120" fill="none" xmlns="http://www.w3.org/2000/svg">
  <rect width="120" height="120" rx="28" fill="#C7E3FF"/>
  <circle cx="60" cy="60" r="17" fill="#1B3952"/>
  <path d="M24 61C33 37 55 26 78 32C97 36 107 48 102 60C97 72 76 78 56 72C36 67 23 75 24 89" stroke="#21567A" stroke-width="7" stroke-linecap="round"/>
  <path d="M20 44C31 28 56 20 81 27C95 31 108 39 100 49" stroke="#7F55D8" stroke-width="6" stroke-linecap="round" opacity="0.82"/>
  <circle cx="35" cy="38" r="4" fill="#F4C64C"/>
  <circle cx="83" cy="78" r="4" fill="#F4C64C"/>
  <circle cx="93" cy="45" r="2.5" fill="#FFFFFF"/>
  <circle cx="28" cy="76" r="2.5" fill="#FFFFFF"/>
</svg>
