<svg width="120" height="120" viewBox="0 0 120 120" fill="none" xmlns="http://www.w3.org/2000/svg">
  <rect width="120" height="120" rx="28" fill="#2B5AA0"/>
  <!-- Building -->
  <rect x="25" y="45" width="70" height="55" fill="#F5E7AB" stroke="#1B3952" stroke-width="3"/>
  <!-- Roof -->
  <path d="M25 45L60 20L95 45" fill="#B4362C" stroke="#1B3952" stroke-width="3"/>
  <!-- Flag on roof -->
  <rect x="57" y="15" width="6" height="15" fill="#1B3952"/>
  <rect x="63" y="13" width="18" height="12" fill="#E8B917" stroke="#1B3952" stroke-width="2"/>
  <!-- Door -->
  <rect x="50" y="70" width="20" height="30" fill="#8B4513" stroke="#1B3952" stroke-width="2"/>
  <circle cx="68" cy="85" r="2" fill="#FFD700"/>
  <!-- Windows left side -->
  <rect x="30" y="50" width="12" height="12" fill="#87CEEB" stroke="#1B3952" stroke-width="1.5"/>
  <line x1="36" y1="50" x2="36" y2="62" stroke="#1B3952" stroke-width="1"/>
  <line x1="30" y1="56" x2="42" y2="56" stroke="#1B3952" stroke-width="1"/>
  <rect x="30" y="65" width="12" height="12" fill="#87CEEB" stroke="#1B3952" stroke-width="1.5"/>
  <line x1="36" y1="65" x2="36" y2="77" stroke="#1B3952" stroke-width="1"/>
  <line x1="30" y1="71" x2="42" y2="71" stroke="#1B3952" stroke-width="1"/>
  <!-- Windows right side -->
  <rect x="78" y="50" width="12" height="12" fill="#87CEEB" stroke="#1B3952" stroke-width="1.5"/>
  <line x1="84" y1="50" x2="84" y2="62" stroke="#1B3952" stroke-width="1"/>
  <line x1="78" y1="56" x2="90" y2="56" stroke="#1B3952" stroke-width="1"/>
  <rect x="78" y="65" width="12" height="12" fill="#87CEEB" stroke="#1B3952" stroke-width="1.5"/>
  <line x1="84" y1="65" x2="84" y2="77" stroke="#1B3952" stroke-width="1"/>
  <line x1="78" y1="71" x2="90" y2="71" stroke="#1B3952" stroke-width="1"/>
  <!-- Base/Ground -->
  <rect x="20" y="98" width="80" height="8" fill="#8B7355"/>
</svg>
